# xmcd CD database file
#
# Track frame offsets:
#	150
#	18129
#	35818
#	53745
#
# Disc length: 949 seconds
#
# Revision: 0
# Processed by: cddbd v1.5.1PL0 Copyright (c) Steve Scherf et al.
# Submitted via: CDex 1.51
#
DISCID=2903b304
DTITLE=P・K・O - First Impact
DYEAR=2004
DGENRE=Vocal
TTITLE0=First Impact
TTITLE1=White smoke&Run&Rock
TTITLE2=First Impact *karaoke
TTITLE3=White smoke&Run&Rock *karaoke
EXTD=YEAR: 2004
EXTT0=
EXTT1=
EXTT2=
EXTT3=
PLAYORDER=
